<?xml version="1.0" encoding="UTF-8"?>
<svg xmlns="http://www.w3.org/2000/svg" width="1200" height="630" viewBox="0 0 1200 630">
  <defs>
    <linearGradient id="g" x1="0" y1="0" x2="1" y2="1">
      <stop offset="0" stop-color="#0b1b2b"/>
      <stop offset="1" stop-color="#16324c"/>
    </linearGradient>
  </defs>
  <rect width="1200" height="630" fill="url(#g)"/>
  <g fill="#ea5a1e" opacity="0.18">
      <circle cx="812" cy="52" r="4"/><circle cx="909" cy="306" r="5"/><circle cx="1006" cy="433" r="6"/><circle cx="1103" cy="496" r="7"/><circle cx="80" cy="528" r="8"/><circle cx="177" cy="544" r="4"/><circle cx="274" cy="292" r="5"/><circle cx="371" cy="52" r="6"/><circle cx="468" cy="306" r="7"/><circle cx="565" cy="433" r="8"/><circle cx="662" cy="496" r="4"/><circle cx="759" cy="528" r="5"/><circle cx="856" cy="544" r="6"/><circle cx="953" cy="292" r="7"/><circle cx="1050" cy="52" r="8"/><circle cx="1147" cy="306" r="4"/><circle cx="124" cy="433" r="5"/><circle cx="221" cy="496" r="6"/>
    </g>
  <rect x="0" y="618" width="1200" height="12" fill="#ea5a1e"/>
  <text x="72" y="88" fill="#ea5a1e" font-family="Arial, Helvetica, sans-serif" font-size="22" font-weight="700" letter-spacing="4">АЛМАТЫ</text>
  <text x="72" y="200" fill="#ffffff" font-family="Arial, Helvetica, sans-serif" font-size="48" font-weight="700"><tspan x="72" dy="0">Зимний холодный пуск в</tspan><tspan x="72" dy="55.199999999999996">Алматы: цепь, масло,</tspan><tspan x="72" dy="55.199999999999996">аккумулятор</tspan></text>
  <rect x="72" y="500" width="1056" height="2" fill="rgba(255,255,255,0.18)"/>
  <text x="72" y="548" fill="#ffffff" font-family="Arial, Helvetica, sans-serif" font-size="28" font-weight="700">VAG Auto Service</text>
  <text x="72" y="586" fill="rgba(255,255,255,0.7)" font-family="Arial, Helvetica, sans-serif" font-size="20">Таугуль, Алматы · +7 707 405 69 07</text>
</svg>